<svg width="144" height="56" viewBox="0 0 144 56" fill="none" xmlns="http://www.w3.org/2000/svg">
<g clip-path="url(#clip0_1_813)">
<mask id="mask0_1_813" style="mask-type:luminance" maskUnits="userSpaceOnUse" x="0" y="0" width="51" height="56">
<path d="M50.0364 0.5H0V55.5H50.0364V0.5Z" fill="white"/>
</mask>
<g mask="url(#mask0_1_813)">
<path fill-rule="evenodd" clip-rule="evenodd" d="M14.5024 5.15285C20.7067 1.56234 21.5601 1.11518 22.9274 0.73838C23.3664 0.617245 24.2842 0.51092 24.9672 0.501928C27.3712 0.470366 27.975 0.754426 38.5291 6.87976C43.8494 9.96739 48.501 12.7831 48.866 13.1368C49.7859 14.0282 50.0551 14.7821 50.0353 16.5936C50.0359 16.6191 50.0363 16.6447 50.0363 16.6704V22.2278C50.0363 22.8497 49.3691 23.2475 48.8166 22.955L45.4398 21.1674C44.6768 20.7634 44.2001 19.9746 44.2001 19.1157V16.6704C44.2001 16.4283 44.0897 16.1913 43.8791 16.0691C43.7722 16.007 43.6758 15.9512 43.6487 15.9358C42.645 15.3638 41.3846 14.6506 39.366 13.5075C27.2527 6.64826 27.2163 6.62989 25.5072 6.52078C23.6664 6.40333 22.8367 6.69655 19.3504 8.69555C17.0335 10.0241 14.9453 11.4269 12.5704 12.7674C9.74463 14.6004 7.94001 15.5921 6.83685 16.5397C6.01744 17.2437 5.7267 18.3135 5.71969 19.3894C5.70577 21.5245 5.79292 25.2259 5.79292 27.7157C5.79292 27.7157 5.80437 35.8224 5.79292 37.4239C5.78146 39.0254 7.28836 39.7208 8.51682 40.5517C9.41764 41.161 10.4823 41.8515 12.8162 43.4358C14.9454 44.7356 17.6711 46.394 19.1596 47.2547C22.3329 49.0898 23.4201 49.505 25.0514 49.505C26.8265 49.505 27.6575 49.1751 31.5297 46.9345C33.4807 45.8054 37.0325 43.7687 39.4226 42.408C39.9126 42.129 40.3957 41.8586 40.8538 41.6022C42.6303 40.6085 44.034 39.8231 44.034 39.5427C44.034 39.2564 43.6349 39.0368 42.3128 38.3093C42.0068 38.141 41.6512 37.9456 41.2397 37.7155L39.2803 36.6208L38.1544 37.3921C35.6884 39.0816 27.7984 43.5722 26.6027 43.9671C25.3854 44.369 23.75 44.2269 22.577 43.6172C22.0871 43.3624 20.5088 42.4557 19.0698 41.602C18.6147 41.3322 18.1947 41.0976 17.7712 40.861C16.856 40.3495 15.925 39.8296 14.591 38.9255C12.9362 37.8038 11.2938 36.5375 10.7776 35.5752C10.0682 34.2528 9.93541 32.7669 10.6068 31.4027C11.1836 30.2312 11.978 29.5538 14.1783 28.3587C15.1369 27.8378 17.3836 26.5445 19.1708 25.4843C20.9578 24.4243 22.6913 23.4442 23.0228 23.3067C23.4017 23.0788 24.2292 22.8017 25.0568 22.807C25.8416 22.8119 26.6267 23.0873 27.0296 23.3078C27.3586 23.446 29.1429 24.4352 30.9946 25.5058C32.8464 26.5766 34.4221 27.3926 34.4958 27.3195C34.5694 27.2462 34.5785 26.2978 34.5162 25.212C34.4524 24.1056 34.4154 23.4285 34.1405 22.8665C33.7016 21.9708 32.6575 21.3675 29.9335 19.7848C26.4191 17.743 25.9437 17.6935 25.0568 17.6054L25.0366 17.6098C24.244 17.7848 23.3547 17.981 16.01 22.1746C12.7814 24.0182 11.3409 24.8196 10.9362 24.8196C10.6237 24.8196 10.3703 24.5678 10.3703 24.2573V23.3067C10.3703 23.002 10.3656 22.7136 10.3612 22.4419C10.3441 21.3897 10.331 20.5866 10.6098 20.0455C10.7382 19.7959 11.1482 19.3177 11.5209 18.9831C12.2802 18.301 22.3853 12.3885 23.4172 12.0223C24.3333 11.6973 25.6859 11.7248 26.7408 12.09C27.5823 12.3814 36.5401 17.425 38.1327 18.5041C38.5448 18.7834 39.0836 19.3537 39.3299 19.7714C39.6235 20.3071 39.7774 20.9072 39.7774 21.5173V25.4963C39.7774 29.9905 39.8068 30.4913 40.0877 30.7707C40.2586 30.9401 41.6986 31.8329 43.2886 32.754C48.3191 35.6697 48.836 36.0455 49.4363 37.2237C49.8076 37.953 50.0343 38.7493 50.0343 39.3902V39.4213C50.0343 40.258 50.0343 40.6721 49.5371 41.6759C49.5101 41.7167 49.4837 41.7567 49.4583 41.7959C48.7191 42.92 48.4448 43.337 45.0098 45.3566C42.1466 47.0401 31.1153 53.4115 29.6674 54.2179C28.3082 54.9744 26.3966 55.5 25.0015 55.5C23.707 55.5 21.8243 54.9559 20.3557 54.2073C17.0745 52.5347 13.8782 50.8681 9.5404 48.0665C3.96917 44.4681 2.82871 43.8802 1.44264 42.3055C-0.205584 40.4331 0.0756137 39.7268 0.0306871 33.3581C0.0246946 32.5087 0.0366508 26.3707 0.0306871 25.5899C-0.00147722 21.3797 -0.0249934 18.3015 0.0489208 17.7724C0.447998 14.9194 3.01045 11.7703 6.60958 9.70925C7.63388 9.12261 11.1857 7.07231 14.5024 5.15285ZM17.1284 34.0079C16.6048 33.6694 16.6174 33.0635 17.1549 32.7473C19.1783 31.5573 23.6319 29.0815 24.1066 28.9096C24.7678 28.6703 25.3708 28.6545 26.051 28.9096C27.1039 29.3043 34.1902 32.8623 34.1902 33.3581C34.1902 33.8543 27.7761 37.3933 26.051 38.1928C25.0649 38.6498 24.9855 38.4971 24.1066 38.1928C23.5533 38.0008 19.13 35.3018 17.1284 34.0079Z" fill="url(#paint0_linear_1_813)"/>
</g>
<path d="M72.4105 36.0258C68.8766 36.3406 65.945 36.498 63.6155 36.498C62.0625 36.498 60.9216 36.136 60.1926 35.4121C59.4637 34.6882 59.0991 33.5552 59.0991 32.013V24.4593C59.0991 22.807 59.4716 21.611 60.2164 20.8713C60.9771 20.116 62.1893 19.7383 63.8532 19.7383H72.4105V23.043H64.804C63.8532 23.043 63.3778 23.5151 63.3778 24.4593V32.013C63.3778 32.3749 63.4808 32.666 63.6868 32.8864C63.9087 33.0909 64.1859 33.1932 64.5188 33.1932C64.8516 33.1932 65.216 33.1932 65.6122 33.1932C66.0084 33.1775 66.4204 33.1618 66.8482 33.146C67.2761 33.1303 67.704 33.1145 68.1318 33.0988C68.5755 33.0831 69.1381 33.0516 69.8196 33.0044C70.5168 32.9572 71.3804 32.9021 72.4105 32.8392V36.0258Z" fill="url(#paint1_linear_1_813)"/>
<path d="M72.4105 36.0258C68.8766 36.3406 65.945 36.498 63.6155 36.498C62.0625 36.498 60.9216 36.136 60.1926 35.4121C59.4637 34.6882 59.0991 33.5552 59.0991 32.013V24.4593C59.0991 22.807 59.4716 21.611 60.2164 20.8713C60.9771 20.116 62.1893 19.7383 63.8532 19.7383H72.4105V23.043H64.804C63.8532 23.043 63.3778 23.5151 63.3778 24.4593V32.013C63.3778 32.3749 63.4808 32.666 63.6868 32.8864C63.9087 33.0909 64.1859 33.1932 64.5188 33.1932C64.8516 33.1932 65.216 33.1932 65.6122 33.1932C66.0084 33.1775 66.4204 33.1618 66.8482 33.146C67.2761 33.1303 67.704 33.1145 68.1318 33.0988C68.5755 33.0831 69.1381 33.0516 69.8196 33.0044C70.5168 32.9572 71.3804 32.9021 72.4105 32.8392V36.0258Z" fill="url(#paint2_linear_1_813)"/>
<path d="M86.1998 24.2231C86.1998 23.2789 85.7244 22.8068 84.7736 22.8068H80.7326C79.7818 22.8068 79.3064 23.2789 79.3064 24.2231V31.7767C79.3064 32.7209 79.7818 33.193 80.7326 33.193H84.7736C85.7244 33.193 86.1998 32.7209 86.1998 31.7767V24.2231ZM90.4784 31.7767C90.4784 33.4291 90.0981 34.6329 89.3375 35.3883C88.5926 36.1279 87.3883 36.4978 85.7244 36.4978H79.7818C78.1179 36.4978 76.9057 36.1279 76.145 35.3883C75.4002 34.6329 75.0278 33.4291 75.0278 31.7767V24.2231C75.0278 22.5707 75.4002 21.3747 76.145 20.6351C76.9057 19.8797 78.1179 19.502 79.7818 19.502H85.7244C87.3883 19.502 88.5926 19.8797 89.3375 20.6351C90.0981 21.3747 90.4784 22.5707 90.4784 24.2231V31.7767Z" fill="url(#paint3_linear_1_813)"/>
<path d="M86.1998 24.2231C86.1998 23.2789 85.7244 22.8068 84.7736 22.8068H80.7326C79.7818 22.8068 79.3064 23.2789 79.3064 24.2231V31.7767C79.3064 32.7209 79.7818 33.193 80.7326 33.193H84.7736C85.7244 33.193 86.1998 32.7209 86.1998 31.7767V24.2231ZM90.4784 31.7767C90.4784 33.4291 90.0981 34.6329 89.3375 35.3883C88.5926 36.1279 87.3883 36.4978 85.7244 36.4978H79.7818C78.1179 36.4978 76.9057 36.1279 76.145 35.3883C75.4002 34.6329 75.0278 33.4291 75.0278 31.7767V24.2231C75.0278 22.5707 75.4002 21.3747 76.145 20.6351C76.9057 19.8797 78.1179 19.502 79.7818 19.502H85.7244C87.3883 19.502 88.5926 19.8797 89.3375 20.6351C90.0981 21.3747 90.4784 22.5707 90.4784 24.2231V31.7767Z" fill="url(#paint4_linear_1_813)"/>
<path d="M96.5624 36.2619H91.9272L98.2263 19.7383H102.98L109.28 36.2619H104.645L103.574 33.3113H97.6321L96.5624 36.2619ZM98.7017 30.2426H102.505L100.603 24.6954L98.7017 30.2426Z" fill="url(#paint5_linear_1_813)"/>
<path d="M96.5624 36.2619H91.9272L98.2263 19.7383H102.98L109.28 36.2619H104.645L103.574 33.3113H97.6321L96.5624 36.2619ZM98.7017 30.2426H102.505L100.603 24.6954L98.7017 30.2426Z" fill="url(#paint6_linear_1_813)"/>
<path d="M111.655 19.7383H121.639C123.303 19.7383 124.508 20.116 125.252 20.8713C126.013 21.611 126.393 22.807 126.393 24.4593V26.5838C126.393 27.8899 126.171 28.905 125.727 29.6289C125.3 30.3527 124.61 30.8327 123.66 31.0688L126.63 36.2619H121.995L119.262 31.3048H115.934V36.2619H111.655V19.7383ZM122.114 24.4593C122.114 23.5151 121.639 23.043 120.688 23.043H115.934V28.0001H120.688C121.639 28.0001 122.114 27.528 122.114 26.5838V24.4593Z" fill="url(#paint7_linear_1_813)"/>
<path d="M111.655 19.7383H121.639C123.303 19.7383 124.508 20.116 125.252 20.8713C126.013 21.611 126.393 22.807 126.393 24.4593V26.5838C126.393 27.8899 126.171 28.905 125.727 29.6289C125.3 30.3527 124.61 30.8327 123.66 31.0688L126.63 36.2619H121.995L119.262 31.3048H115.934V36.2619H111.655V19.7383ZM122.114 24.4593C122.114 23.5151 121.639 23.043 120.688 23.043H115.934V28.0001H120.688C121.639 28.0001 122.114 27.528 122.114 26.5838V24.4593Z" fill="url(#paint8_linear_1_813)"/>
<path d="M138.034 36.2619H133.756V23.043H128.763V19.7383H143.026V23.043H138.034V36.2619Z" fill="url(#paint9_linear_1_813)"/>
<path d="M138.034 36.2619H133.756V23.043H128.763V19.7383H143.026V23.043H138.034V36.2619Z" fill="url(#paint10_linear_1_813)"/>
</g>
<defs>
<linearGradient id="paint0_linear_1_813" x1="21.1469" y1="45.5" x2="40.5547" y2="0.900562" gradientUnits="userSpaceOnUse">
<stop stop-color="#DF7140"/>
<stop offset="1" stop-color="#2C2030"/>
</linearGradient>
<linearGradient id="paint1_linear_1_813" x1="65.7548" y1="19.7383" x2="65.7548" y2="36.498" gradientUnits="userSpaceOnUse">
<stop stop-color="#CB5C2A"/>
<stop offset="1" stop-color="#2C2030"/>
</linearGradient>
<linearGradient id="paint2_linear_1_813" x1="64.7249" y1="33.4508" x2="71.1784" y2="20.5035" gradientUnits="userSpaceOnUse">
<stop stop-color="#DF7140"/>
<stop offset="1" stop-color="#2C2030"/>
</linearGradient>
<linearGradient id="paint3_linear_1_813" x1="82.7531" y1="19.502" x2="82.7531" y2="36.4978" gradientUnits="userSpaceOnUse">
<stop stop-color="#CB5C2A"/>
<stop offset="1" stop-color="#2C2030"/>
</linearGradient>
<linearGradient id="paint4_linear_1_813" x1="81.5577" y1="33.4076" x2="87.558" y2="19.629" gradientUnits="userSpaceOnUse">
<stop stop-color="#DF7140"/>
<stop offset="1" stop-color="#2C2030"/>
</linearGradient>
<linearGradient id="paint5_linear_1_813" x1="100.604" y1="19.7383" x2="100.604" y2="36.2619" gradientUnits="userSpaceOnUse">
<stop stop-color="#CB5C2A"/>
<stop offset="1" stop-color="#2C2030"/>
</linearGradient>
<linearGradient id="paint6_linear_1_813" x1="99.261" y1="33.2576" x2="104.521" y2="19.3042" gradientUnits="userSpaceOnUse">
<stop stop-color="#DF7140"/>
<stop offset="1" stop-color="#2C2030"/>
</linearGradient>
<linearGradient id="paint7_linear_1_813" x1="119.143" y1="19.7383" x2="119.143" y2="36.2619" gradientUnits="userSpaceOnUse">
<stop stop-color="#CB5C2A"/>
<stop offset="1" stop-color="#2C2030"/>
</linearGradient>
<linearGradient id="paint8_linear_1_813" x1="117.984" y1="33.2576" x2="123.83" y2="19.875" gradientUnits="userSpaceOnUse">
<stop stop-color="#DF7140"/>
<stop offset="1" stop-color="#2C2030"/>
</linearGradient>
<linearGradient id="paint9_linear_1_813" x1="135.895" y1="19.7383" x2="135.895" y2="36.2619" gradientUnits="userSpaceOnUse">
<stop stop-color="#CB5C2A"/>
<stop offset="1" stop-color="#2C2030"/>
</linearGradient>
<linearGradient id="paint10_linear_1_813" x1="134.791" y1="33.2576" x2="140.83" y2="20.0909" gradientUnits="userSpaceOnUse">
<stop stop-color="#DF7140"/>
<stop offset="1" stop-color="#2C2030"/>
</linearGradient>
<clipPath id="clip0_1_813">
<rect width="144" height="56" fill="white"/>
</clipPath>
</defs>
</svg>
